<svg width="30" height="30" viewBox="0 0 30 30" fill="none" xmlns="http://www.w3.org/2000/svg">
<path fill-rule="evenodd" clip-rule="evenodd" d="M5.56256 14.7273V28.9091C5.56256 29.5116 5.06447 30 4.45004 30H1.11251C0.498088 30 0 29.5116 0 28.9091V14.7273H5.56256Z" fill="black"/>
<path fill-rule="evenodd" clip-rule="evenodd" d="M15.0189 5.45455C9.7963 5.45455 5.56256 9.60609 5.56256 14.7273H0C0 6.59363 6.72419 0 15.0189 0C22.9394 0 29.4279 6.0121 29.9972 13.6363C30.0421 14.2372 29.5397 14.7273 28.9253 14.7273H25.5878C24.9733 14.7273 24.4821 14.2367 24.4107 13.6383C23.861 9.03025 19.8658 5.45455 15.0189 5.45455Z" fill="black"/>
<path fill-rule="evenodd" clip-rule="evenodd" d="M28.2975 25.6391C28.2975 25.0366 27.7972 24.555 27.1878 24.4781C22.7824 23.9221 18.9234 20.1381 18.3564 15.8182C18.278 15.2206 17.7868 14.73 17.1724 14.73H13.8348C13.2204 14.73 12.7179 15.2198 12.7659 15.8205C13.3501 23.1301 19.7311 29.3871 27.1854 29.96C27.798 30.0071 28.2975 29.5144 28.2975 28.9119V25.6391Z" fill="black"/>
</svg>
